<mxfile host="app.diagrams.net" agent="Mozilla/5.0 (Windows NT 10.0; Win64; x64) AppleWebKit/537.36 (KHTML, like Gecko) Chrome/140.0.0.0 Safari/537.36" version="28.2.1" pages="2">
  <diagram name="현재 아키텍처 (문제점)" id="current-architecture">
    <mxGraphModel dx="1426" dy="777" grid="1" gridSize="10" guides="1" tooltips="1" connect="1" arrows="1" fold="1" page="1" pageScale="1" pageWidth="1169" pageHeight="827" math="0" shadow="0">
      <root>
        <mxCell id="0" />
        <mxCell id="1" parent="0" />
        <mxCell id="title" value="현재 아키텍처 (문제점)" style="text;html=1;strokeColor=none;fillColor=none;align=center;verticalAlign=middle;whiteSpace=wrap;rounded=0;fontSize=20;fontStyle=1;" parent="1" vertex="1">
          <mxGeometry x="400" y="20" width="300" height="30" as="geometry" />
        </mxCell>
        <mxCell id="client1" value="클라이언트 1&#xa;(호스트)" style="rounded=1;whiteSpace=wrap;html=1;fillColor=#dae8fc;strokeColor=#6c8ebf;fontSize=12;" parent="1" vertex="1">
          <mxGeometry x="80" y="100" width="120" height="80" as="geometry" />
        </mxCell>
        <mxCell id="client2" value="클라이언트 2&#xa;(플레이어)" style="rounded=1;whiteSpace=wrap;html=1;fillColor=#dae8fc;strokeColor=#6c8ebf;fontSize=12;" parent="1" vertex="1">
          <mxGeometry x="80" y="220" width="120" height="80" as="geometry" />
        </mxCell>
        <mxCell id="client3" value="클라이언트 3&#xa;(플레이어)" style="rounded=1;whiteSpace=wrap;html=1;fillColor=#dae8fc;strokeColor=#6c8ebf;fontSize=12;" parent="1" vertex="1">
          <mxGeometry x="80" y="340" width="120" height="80" as="geometry" />
        </mxCell>
        <mxCell id="firebase" value="Firebase&#xa;Realtime Database&#xa;&#xa;❌ 서버 없음&#xa;❌ 로직 검증 없음&#xa;❌ 보안 취약" style="rounded=1;whiteSpace=wrap;html=1;fillColor=#fff2cc;strokeColor=#d6b656;fontSize=12;fontStyle=1;" parent="1" vertex="1">
          <mxGeometry x="400" y="200" width="200" height="120" as="geometry" />
        </mxCell>
        <mxCell id="valtio" value="Valtio&#xa;상태관리&#xa;&#xa;❌ 클라이언트에서&#xa;   게임 로직 처리" style="rounded=1;whiteSpace=wrap;html=1;fillColor=#f8cecc;strokeColor=#b85450;fontSize=12;fontStyle=1;" parent="1" vertex="1">
          <mxGeometry x="80" y="480" width="120" height="80" as="geometry" />
        </mxCell>
        <mxCell id="problems" value="주요 문제점:&#xa;&#xa;• 방 코드 생성 (클라이언트)&#xa;• 호스트 결정 (클라이언트)&#xa;• 역할 배정 (클라이언트)&#xa;• 투표 처리 (클라이언트)&#xa;• 게임 로직 (클라이언트)&#xa;&#xa;→ 조작 가능, 일관성 없음" style="rounded=1;whiteSpace=wrap;html=1;fillColor=#ffcccc;strokeColor=#ff6666;fontSize=11;fontStyle=1;" parent="1" vertex="1">
          <mxGeometry x="700" y="100" width="200" height="200" as="geometry" />
        </mxCell>
        <mxCell id="edge1" value="실시간 동기화&#xa;(onValue)" style="edgeStyle=orthogonalEdgeStyle;rounded=0;orthogonalLoop=1;jettySize=auto;html=1;strokeColor=#d79b00;strokeWidth=2;" parent="1" source="client1" target="firebase" edge="1">
          <mxGeometry relative="1" as="geometry" />
        </mxCell>
        <mxCell id="edge2" value="실시간 동기화&#xa;(onValue)" style="edgeStyle=orthogonalEdgeStyle;rounded=0;orthogonalLoop=1;jettySize=auto;html=1;strokeColor=#d79b00;strokeWidth=2;" parent="1" source="client2" target="firebase" edge="1">
          <mxGeometry relative="1" as="geometry" />
        </mxCell>
        <mxCell id="edge3" value="실시간 동기화&#xa;(onValue)" style="edgeStyle=orthogonalEdgeStyle;rounded=0;orthogonalLoop=1;jettySize=auto;html=1;strokeColor=#d79b00;strokeWidth=2;" parent="1" source="client3" target="firebase" edge="1">
          <mxGeometry relative="1" as="geometry" />
        </mxCell>
        <mxCell id="edge4" value="상태 관리" style="edgeStyle=orthogonalEdgeStyle;rounded=0;orthogonalLoop=1;jettySize=auto;html=1;strokeColor=#b85450;strokeWidth=2;" parent="1" source="valtio" target="client1" edge="1">
          <mxGeometry relative="1" as="geometry" />
        </mxCell>
        <mxCell id="edge5" value="상태 관리" style="edgeStyle=orthogonalEdgeStyle;rounded=0;orthogonalLoop=1;jettySize=auto;html=1;strokeColor=#b85450;strokeWidth=2;" parent="1" source="valtio" target="client2" edge="1">
          <mxGeometry relative="1" as="geometry" />
        </mxCell>
        <mxCell id="edge6" value="상태 관리" style="edgeStyle=orthogonalEdgeStyle;rounded=0;orthogonalLoop=1;jettySize=auto;html=1;strokeColor=#b85450;strokeWidth=2;" parent="1" source="valtio" target="client3" edge="1">
          <mxGeometry relative="1" as="geometry" />
        </mxCell>
        <mxCell id="arrow1" value="❌" style="text;html=1;strokeColor=none;fillColor=none;align=center;verticalAlign=middle;whiteSpace=wrap;rounded=0;fontSize=20;" parent="1" vertex="1">
          <mxGeometry x="300" y="140" width="30" height="30" as="geometry" />
        </mxCell>
        <mxCell id="arrow2" value="❌" style="text;html=1;strokeColor=none;fillColor=none;align=center;verticalAlign=middle;whiteSpace=wrap;0;fontSize=20;" parent="1" vertex="1">
          <mxGeometry x="300" y="260" width="30" height="30" as="geometry" />
        </mxCell>
        <mxCell id="arrow3" value="❌" style="text;html=1;strokeColor=none;fillColor=none;align=center;verticalAlign=middle;whiteSpace=wrap;rounded=0;fontSize=20;" parent="1" vertex="1">
          <mxGeometry x="300" y="380" width="30" height="30" as="geometry" />
        </mxCell>
      </root>
    </mxGraphModel>
  </diagram>
  <diagram id="zEQPQ8-TdBp8F8qoQx-H" name="페이지-2">
    <mxGraphModel dx="1426" dy="777" grid="1" gridSize="10" guides="1" tooltips="1" connect="1" arrows="1" fold="1" page="1" pageScale="1" pageWidth="1400" pageHeight="1100" math="0" shadow="0">
      <root>
        <mxCell id="0" />
        <mxCell id="1" parent="0" />
      </root>
    </mxGraphModel>
  </diagram>
</mxfile>
